<?xml version="1.0" encoding="iso-8859-1"?>
<!-- Uploaded to: SVG Repo, www.svgrepo.com, Generator: SVG Repo Mixer Tools -->
<svg version="1.1" id="Layer_1" xmlns="http://www.w3.org/2000/svg" xmlns:xlink="http://www.w3.org/1999/xlink" 
	 viewBox="0 0 511.998 511.998" xml:space="preserve">
<rect x="403.927" y="63.995" style="fill:#E2804F;" width="23.991" height="47.972"/>
<path style="fill:#F2BF7E;" d="M398.721,71.993H190.819V57.325c0-18.397,14.914-33.31,33.31-33.31h141.282
	c18.397,0,33.31,14.914,33.31,33.31V71.993z"/>
<polygon style="fill:#D4E4AC;" points="183.723,354.696 400.406,354.696 400.406,72.383 120.176,72.383 120.176,87.985 
	183.723,159.951 "/>
<polygon style="fill:#FFFFFF;" points="400.406,111.981 141.815,112.49 120.176,87.985 120.176,72.383 400.406,72.383 "/>
<rect x="188.035" y="479.798" style="fill:#D4E4AC;" width="220.382" height="23.991"/>
<rect x="188.035" y="343.86" style="fill:#F2BF7E;" width="215.902" height="135.938"/>
<path style="fill:#E2804F;" d="M145.294,503.789H62.849c-23.604,0-42.738-19.135-42.738-42.738V255.906h167.92v205.145
	C188.032,484.654,168.897,503.789,145.294,503.789z"/>
<rect x="20.11" y="255.905" style="fill:#F2BF7E;" width="167.919" height="31.985"/>
<path d="M220.184,263.902v-15.464h-15.626v46.879h15.626v-15.422h31.817v79.962c0,26.455-21.523,47.978-47.978,47.978v15.993
	c35.273,0,63.97-28.697,63.97-63.97v-95.955h-47.809V263.902z"/>
<path d="M12.115,247.91v212.561c0,28.295,23.019,51.314,51.314,51.314h81.284c28.295,0,51.314-23.019,51.314-51.314V247.91H12.115z
	 M144.714,495.793H63.428c-19.477,0-35.321-15.845-35.321-35.321V295.317h9.772V279.69h-9.772v-15.789h151.928v15.789h-11.938
	v15.626h11.938v165.154C180.035,479.948,164.19,495.793,144.714,495.793z"/>
<rect x="48.295" y="279.688" width="104.175" height="15.626"/>
<rect x="183.722" y="496.372" width="225.017" height="15.626"/>
<path d="M366.736,16.019H302.74L302.686,0l-15.993,0.053l0.053,15.966h-63.943c-22.045,0-39.981,17.936-39.981,39.981h15.993
	c0-13.227,10.761-23.988,23.988-23.988h143.933c13.227,0,23.988,10.761,23.988,23.988h15.993
	C406.717,33.955,388.782,16.019,366.736,16.019z"/>
<rect x="192.056" y="104.675" width="160.429" height="15.626"/>
<rect x="200.39" y="335.943" width="39.586" height="15.626"/>
<polygon points="111.842,64.049 111.842,90.977 176.431,162.943 176.431,240.104 192.057,240.104 192.057,156.959 127.469,84.993 
	127.469,79.675 392.072,79.675 392.072,104.677 368.112,104.677 368.112,120.303 392.072,120.303 392.072,335.945 272.272,335.945 
	272.272,351.571 392.072,351.571 392.072,471.372 200.391,471.372 200.391,486.998 407.699,486.998 407.699,64.049 "/>
<rect x="311.857" y="440.117" style="fill:#FFFFFF;" width="64.588" height="15.626"/>
<path d="M467.899,343.864h-47.978v-7.996c0-22.531,10.761-44.053,28.787-57.573l35.183-26.388V79.988h-47.978v31.985h-15.993V63.997
	h79.962v195.908l-41.58,31.186c-11.868,8.901-19.686,22.261-21.808,36.782h15.411v-15.993h15.993v31.985H467.899z"/>
</svg>